<?xml version="1.0" encoding="UTF-8" standalone="no"?>
<!-- Created with Inkscape (http://www.inkscape.org/) -->
<svg xmlns:dc="http://purl.org/dc/elements/1.1/" xmlns:cc="http://creativecommons.org/ns#" xmlns:rdf="http://www.w3.org/1999/02/22-rdf-syntax-ns#" xmlns:svg="http://www.w3.org/2000/svg" xmlns="http://www.w3.org/2000/svg" xmlns:xlink="http://www.w3.org/1999/xlink" xmlns:sodipodi="http://sodipodi.sourceforge.net/DTD/sodipodi-0.dtd" xmlns:inkscape="http://www.inkscape.org/namespaces/inkscape" width="1103.8329" height="519.64948" id="svg3971" sodipodi:version="0.32" inkscape:version="0.46" sodipodi:docname="frustum clipping.svg" inkscape:output_extension="org.inkscape.output.svg.inkscape" version="1.0">
  <defs id="defs3973">
    <radialGradient inkscape:collect="always" xlink:href="#linearGradient3347" id="radialGradient3313" gradientUnits="userSpaceOnUse" gradientTransform="matrix(1,0,0,0.7792208,0,204.47144)" cx="-896.80786" cy="926.13544" fx="-896.80786" fy="926.13544" r="11.531432"/>
    <linearGradient id="linearGradient3270">
      <stop style="stop-color:#ffffff;stop-opacity:1;" offset="0" id="stop3272"/>
      <stop id="stop3278" offset="1" style="stop-color:#4e9a05;stop-opacity:1;"/>
    </linearGradient>
    <radialGradient inkscape:collect="always" xlink:href="#linearGradient3270" id="radialGradient3276" cx="-896.80786" cy="926.13544" fx="-896.80786" fy="926.13544" r="11.531432" gradientTransform="matrix(1,0,0,0.7792208,0,204.47144)" gradientUnits="userSpaceOnUse"/>
    <linearGradient id="linearGradient3347">
      <stop id="stop3349" offset="0" style="stop-color:#ffffff;stop-opacity:1;"/>
      <stop style="stop-color:#ffffff;stop-opacity:0;" offset="1" id="stop3351"/>
    </linearGradient>
    <radialGradient inkscape:collect="always" xlink:href="#linearGradient3347" id="radialGradient3967" gradientUnits="userSpaceOnUse" gradientTransform="matrix(1,0,0,0.7792208,0,204.47144)" cx="-896.80786" cy="926.13544" fx="-896.80786" fy="926.13544" r="11.531432"/>
    <inkscape:perspective sodipodi:type="inkscape:persp3d" inkscape:vp_x="0 : 526.18109 : 1" inkscape:vp_y="0 : 1000 : 0" inkscape:vp_z="744.09448 : 526.18109 : 1" inkscape:persp3d-origin="372.04724 : 350.78739 : 1" id="perspective3979"/>
  </defs>
  <sodipodi:namedview id="base" pagecolor="#ffffff" bordercolor="#666666" borderopacity="1.0" gridtolerance="10000" guidetolerance="10" objecttolerance="10" inkscape:pageopacity="0.0" inkscape:pageshadow="2" inkscape:zoom="2.1384102" inkscape:cx="581.70093" inkscape:cy="186.28059" inkscape:document-units="px" inkscape:current-layer="layer1" showgrid="false" inkscape:window-width="1272" inkscape:window-height="721" inkscape:window-x="0" inkscape:window-y="25"/>
  <metadata id="metadata3976">
    <rdf:RDF>
      <cc:Work rdf:about="">
        <dc:format>image/svg+xml</dc:format>
        <dc:type rdf:resource="http://purl.org/dc/dcmitype/StillImage"/>
        <cc:license rdf:resource=""/>
      </cc:Work>
    </rdf:RDF>
  </metadata>
  <g inkscape:label="Layer 1" inkscape:groupmode="layer" id="layer1" transform="translate(281.29236,-92.281937)">
    <g id="g3962" transform="matrix(1.2926697,0,0,1.2866215,1470.5515,-824.41238)">
      <path transform="matrix(0.8439922,0,0,0.8410853,104.89874,47.178338)" d="M -815.03953,1001.1147 A 51.517048,51.517048 0 1 1 -918.07363,1001.1147 A 51.517048,51.517048 0 1 1 -815.03953,1001.1147 z" sodipodi:ry="51.517048" sodipodi:rx="51.517048" sodipodi:cy="1001.1147" sodipodi:cx="-866.55658" id="path3302" style="fill:#204a87;fill-opacity:1;stroke:none;stroke-width:3;stroke-miterlimit:4;stroke-dasharray:9, 9;stroke-dashoffset:0;stroke-opacity:1" sodipodi:type="arc"/>
      <path sodipodi:nodetypes="cscss" id="path3304" d="M -632.66785,930.48353 C -622.31221,934.51541 -605.20257,925.2652 -597.97746,917.96146 C -590.75237,910.65781 -585.19907,903.36808 -585.19908,892.17139 C -592.47994,850.17701 -585.24222,899.3953 -606.43643,913.69727 C -623.28944,925.06978 -676.86163,913.27692 -632.66785,930.48353 z" style="fill:#173867;fill-opacity:1;stroke:none;stroke-width:3;stroke-miterlimit:4;stroke-dasharray:9, 9;stroke-dashoffset:0;stroke-opacity:1"/>
      <path transform="matrix(0.8781284,-0.4536495,0.274077,0.8556213,-109.87266,-329.95819)" d="M -885.27643,926.13544 A 11.531432,8.9855318 0 1 1 -908.33929,926.13544 A 11.531432,8.9855318 0 1 1 -885.27643,926.13544 z" sodipodi:ry="8.9855318" sodipodi:rx="11.531432" sodipodi:cy="926.13544" sodipodi:cx="-896.80786" id="path3306" style="fill:url(#radialGradient3967);fill-opacity:1;stroke:none;stroke-width:3;stroke-miterlimit:4;stroke-dasharray:9, 9;stroke-dashoffset:0;stroke-opacity:1" sodipodi:type="arc"/>
    </g>
    <path style="fill:#65ff7c;fill-opacity:0.47019869;stroke:none;stroke-width:2;stroke-miterlimit:4;stroke-dasharray:12, 12;stroke-dashoffset:0;stroke-opacity:1" d="M 172.87648,318.58572 L 254.36198,379.9664 L 253.70198,465.84033 L 172.14948,394.53704 L 172.87648,318.58572 z" id="rect2441" sodipodi:nodetypes="ccccc"/>
    <path style="fill:none;fill-rule:evenodd;stroke:#000000;stroke-width:2;stroke-linecap:butt;stroke-linejoin:miter;stroke-miterlimit:4;stroke-dasharray:none;stroke-opacity:1" d="M 570.41725,277.60415 L -196.57272,502.28523 C -202.18922,501.90233 801.07228,421.97093 801.07228,421.97093" id="path3224" sodipodi:nodetypes="ccc"/>
    <path style="fill:#000042;fill-opacity:0.33112584;stroke:none;stroke-width:2;stroke-miterlimit:4;stroke-dasharray:12, 12;stroke-dashoffset:0;stroke-opacity:1" d="M 172.87008,318.59727 L 450.23545,181.26885 L 450.31123,312.21412 L 172.15348,394.59551 L 172.87008,318.59727 z" id="path3226" sodipodi:nodetypes="ccccc"/>
    <path style="fill:#005656;fill-opacity:0.35430465;stroke:none;stroke-width:2;stroke-miterlimit:4;stroke-dasharray:12, 12;stroke-dashoffset:0;stroke-opacity:1" d="M 172.25228,394.61819 L 450.38666,312.33614 L 600.5694,437.94283 L 253.57828,465.84623 L 172.25228,394.61819 z" id="path3232" sodipodi:nodetypes="ccccc"/>
    <path style="fill:#008080;fill-opacity:0.21008403;stroke:none;stroke-width:2;stroke-miterlimit:4;stroke-dasharray:12, 12;stroke-dashoffset:0;stroke-opacity:1" d="M 450.29732,181.38943 L 600.81567,286.59247 L 600.58557,437.98573 L 450.32521,312.24409 L 450.29732,181.38943 z" id="path3234" sodipodi:nodetypes="ccccc"/>
    <path style="fill:none;fill-rule:evenodd;stroke:#000080;stroke-width:3;stroke-linecap:butt;stroke-linejoin:miter;stroke-miterlimit:4;stroke-dasharray:9, 9;stroke-dashoffset:0;stroke-opacity:1" d="M 450.82145,182.48894 L 450.09394,312.81242 L 173.41128,393.14967" id="path3262" sodipodi:nodetypes="ccc"/>
    <g id="g3947" transform="translate(1273.9886,-579.88747)">
      <g id="g3285">
        <path sodipodi:type="arc" style="opacity:1;fill:#4e9a06;fill-opacity:1;stroke:none;stroke-width:3;stroke-miterlimit:4;stroke-dasharray:9, 9;stroke-dashoffset:0;stroke-opacity:1" id="path3266" sodipodi:cx="-866.55658" sodipodi:cy="1001.1147" sodipodi:rx="51.517048" sodipodi:ry="51.517048" d="M -815.03953,1001.1147 A 51.517048,51.517048 0 1 1 -918.07363,1001.1147 A 51.517048,51.517048 0 1 1 -815.03953,1001.1147 z" transform="translate(-31.399441,-62.149927)"/>
        <path transform="matrix(1.0933899,0,0,1.1101078,49.776852,-172.20522)" style="fill:#418303;fill-opacity:1;stroke:none;stroke-width:3;stroke-miterlimit:4;stroke-dasharray:9, 9;stroke-dashoffset:0;stroke-opacity:1" d="M -873.50219,1045.1707 C -862.28037,1049.4889 -843.73961,1039.5818 -835.91017,1031.7594 C -828.08074,1023.9371 -822.06294,1016.1297 -822.06295,1004.1379 C -829.95281,959.16137 -822.1097,1011.8748 -845.07668,1027.1924 C -863.33933,1039.3725 -921.3925,1026.7422 -873.50219,1045.1707 z" id="path3282" sodipodi:nodetypes="cscss"/>
        <path sodipodi:type="arc" style="opacity:1;fill:url(#radialGradient3276);fill-opacity:1;stroke:none;stroke-width:3;stroke-miterlimit:4;stroke-dasharray:9, 9;stroke-dashoffset:0;stroke-opacity:1" id="path3268" sodipodi:cx="-896.80786" sodipodi:cy="926.13544" sodipodi:rx="11.531432" sodipodi:ry="8.9855318" d="M -885.27643,926.13544 A 11.531432,8.9855318 0 1 1 -908.33929,926.13544 A 11.531432,8.9855318 0 1 1 -885.27643,926.13544 z" transform="matrix(1.0404461,-0.5393621,0.3247388,1.0172824,-285.87027,-510.54265)"/>
      </g>
      <text sodipodi:linespacing="125%" id="text3378" y="970.43231" x="-911.68817" style="font-size:40px;font-style:italic;font-variant:normal;font-weight:bold;font-stretch:normal;text-align:start;line-height:125%;writing-mode:lr-tb;text-anchor:start;fill:#000000;fill-opacity:1;stroke:none;stroke-width:1px;stroke-linecap:butt;stroke-linejoin:miter;stroke-opacity:1;font-family:Arial;-inkscape-font-specification:Arial Bold Italic" xml:space="preserve"><tspan y="970.43231" x="-911.68817" id="tspan3386" sodipodi:role="line">А</tspan></text>
    </g>
    <path style="fill:none;fill-rule:evenodd;stroke:#000000;stroke-width:2;stroke-linecap:butt;stroke-linejoin:miter;stroke-miterlimit:4;stroke-dasharray:none;stroke-opacity:1" d="M 579.75983,117.7668 L -197.78632,502.75663 C 791.3632,235.11048 800.21207,235.62346 800.21207,235.62346" id="path3222"/>
    <path style="fill:none;fill-rule:evenodd;stroke:#000080;stroke-width:3;stroke-linecap:butt;stroke-linejoin:miter;stroke-miterlimit:4;stroke-dasharray:9, 9;stroke-dashoffset:0;stroke-opacity:1" d="M 599.00608,436.77373 L 450.0205,312.68047" id="path3264" sodipodi:nodetypes="cc"/>
    <path style="fill:#40ffb1;fill-opacity:0.15966387;stroke:none;stroke-width:2;stroke-miterlimit:4;stroke-dasharray:12, 12;stroke-dashoffset:0;stroke-opacity:1" d="M 254.41412,379.82259 L 600.72567,288.00336 L 599.86944,438.09145 L 254.0081,465.33953 L 254.41412,379.82259 z" id="path2435" sodipodi:nodetypes="ccccc"/>
    <text xml:space="preserve" style="font-size:40px;font-style:normal;font-weight:normal;fill:#000000;fill-opacity:1;stroke:none;stroke-width:1px;stroke-linecap:butt;stroke-linejoin:miter;stroke-opacity:1;font-family:Bitstream Vera Sans" x="639.76593" y="343.78305" id="text3382"><tspan sodipodi:role="line" id="tspan3384" x="639.76593" y="343.78305" style="font-style:italic;font-variant:normal;font-weight:bold;font-stretch:normal;font-family:Arial;-inkscape-font-specification:Arial Bold Italic">В</tspan></text>
    <g id="g3922" transform="translate(1258.6745,-584.73261)">
      <path sodipodi:nodetypes="ccsccc" id="path3606" d="M -1488.0026,1067.1412 L -1458.4834,1063.4173 C -1458.4834,1063.4173 -1439.9102,1067.233 -1437.0713,1088.689 C -1436.3714,1093.9787 -1440.2909,1107.4246 -1440.2909,1107.4246 L -1471.4005,1114.3874 L -1488.0026,1067.1412 z" style="fill:#babdb6;fill-rule:evenodd;stroke:#000000;stroke-width:1px;stroke-linecap:butt;stroke-linejoin:miter;stroke-opacity:1"/>
      <path sodipodi:nodetypes="cszzzzs" id="path3604" d="M -1513.4877,1040.3373 C -1510.723,1037.2206 -1499.5298,1038.2436 -1492.5798,1040.4537 C -1487.3053,1042.131 -1445.1221,1081.3125 -1442.6377,1087.7193 C -1440.1532,1094.1261 -1440.6179,1137.548 -1443.7239,1141.2107 C -1446.8299,1144.8734 -1470.6258,1145.7826 -1476.3269,1142.8787 C -1482.028,1139.9748 -1513.4701,1096.7556 -1515.4465,1092.3352 C -1517.4229,1087.9148 -1517.881,1045.29 -1513.4877,1040.3373 z" style="fill:#babdb6;fill-rule:evenodd;stroke:#000000;stroke-width:1px;stroke-linecap:butt;stroke-linejoin:miter;stroke-opacity:1"/>
      <path sodipodi:nodetypes="cszzz" id="path3918" d="M -1504.9145,1066.8971 C -1508.5189,1068.9854 -1507.3994,1086.2753 -1507.0398,1089.1663 C -1506.353,1094.6886 -1489.4422,1118.9014 -1484.9649,1116.2684 C -1480.4876,1113.6355 -1482.6652,1089.4307 -1485.5133,1085.6699 C -1488.3614,1081.909 -1501.3102,1064.8088 -1504.9145,1066.8971 z" style="fill:#0b1a31;fill-opacity:1;fill-rule:evenodd;stroke:none;stroke-width:2.5;stroke-linecap:round;stroke-linejoin:round;stroke-miterlimit:4;stroke-dasharray:none;stroke-opacity:1"/>
      <path sodipodi:nodetypes="cszzz" id="path3608" d="M -1503.3816,1071.4915 C -1506.4407,1073.2639 -1505.4906,1087.9383 -1505.1854,1090.392 C -1504.6025,1095.0789 -1490.2498,1115.629 -1486.4498,1113.3943 C -1482.6498,1111.1597 -1484.498,1090.6164 -1486.9152,1087.4245 C -1489.3325,1084.2325 -1500.3225,1069.7191 -1503.3816,1071.4915 z" style="fill:#12284b;fill-opacity:1;fill-rule:evenodd;stroke:none;stroke-width:2.5;stroke-linecap:round;stroke-linejoin:round;stroke-miterlimit:4;stroke-dasharray:none;stroke-opacity:1"/>
      <path transform="matrix(0.9897443,0.1428506,-0.1428506,0.9897443,137.68022,219.15855)" d="M -1453.6916,1083.3418 A 6.8561358,4.0244646 0 1 1 -1467.4039,1083.3418 A 6.8561358,4.0244646 0 1 1 -1453.6916,1083.3418 z" sodipodi:ry="4.0244646" sodipodi:rx="6.8561358" sodipodi:cy="1083.3418" sodipodi:cx="-1460.5477" id="path3920" style="opacity:1;fill:#111314;fill-opacity:1;stroke:none;stroke-width:2.5;stroke-linecap:round;stroke-linejoin:round;stroke-miterlimit:4;stroke-dasharray:none;stroke-dashoffset:0;stroke-opacity:1" sodipodi:type="arc"/>
      <path transform="matrix(0.9897443,0.1428506,-0.1428506,0.9897443,138.12848,217.67537)" d="M -1453.6916,1083.3418 A 6.8561358,4.0244646 0 1 1 -1467.4039,1083.3418 A 6.8561358,4.0244646 0 1 1 -1453.6916,1083.3418 z" sodipodi:ry="4.0244646" sodipodi:rx="6.8561358" sodipodi:cy="1083.3418" sodipodi:cx="-1460.5477" id="path3878" style="opacity:1;fill:#2e3436;fill-opacity:1;stroke:none;stroke-width:2.5;stroke-linecap:round;stroke-linejoin:round;stroke-miterlimit:4;stroke-dasharray:none;stroke-dashoffset:0;stroke-opacity:1" sodipodi:type="arc"/>
      <path sodipodi:nodetypes="cccc" id="path3880" d="M -1483.909,1069.7557 C -1475.4488,1080.0154 -1466.109,1090.6402 -1452.334,1091.0513 C -1466.9577,1092.7193 -1468.6805,1092.9645 -1470.5846,1107.6341 C -1471.2441,1089.073 -1469.227,1090.2853 -1483.909,1069.7557 z" style="fill:#a4a6a2;fill-opacity:1;fill-rule:evenodd;stroke:none;stroke-width:1px;stroke-linecap:butt;stroke-linejoin:miter;stroke-opacity:1"/>
    </g>
    <path style="fill:none;fill-rule:evenodd;stroke:#000080;stroke-width:3;stroke-linecap:butt;stroke-linejoin:miter;stroke-miterlimit:4;stroke-dasharray:9, 9;stroke-dashoffset:0;stroke-opacity:1" d="M 597.43732,288.79793 L 259.47518,378.83617" id="path3260" sodipodi:nodetypes="cc"/>
    <path style="fill:none;fill-rule:evenodd;stroke:#000080;stroke-width:3;stroke-linecap:butt;stroke-linejoin:miter;stroke-miterlimit:4;stroke-dasharray:9, 9;stroke-dashoffset:0;stroke-opacity:1" d="M 172.81288,320.32595 L 254.01338,379.93621 L 253.49558,465.31743 L 172.66318,394.03851 L 173.07498,320.08882 L 450.77785,181.52445 L 600.79878,286.90477 L 600.62407,437.18773 L 253.42678,465.52343" id="path3256" sodipodi:nodetypes="ccccccccc"/>
    <g id="g3940" transform="translate(1273.9886,-579.88747)">
      <path transform="matrix(1.4486434,0,0,1.4835271,214.1642,-382.8341)" d="M -815.03953,1001.1147 A 51.517048,51.517048 0 1 1 -918.07363,1001.1147 A 51.517048,51.517048 0 1 1 -815.03953,1001.1147 z" sodipodi:ry="51.517048" sodipodi:rx="51.517048" sodipodi:cy="1001.1147" sodipodi:cx="-866.55658" id="path3292" style="fill:#c4a000;fill-opacity:1;stroke:none;stroke-width:3;stroke-miterlimit:4;stroke-dasharray:9, 9;stroke-dashoffset:0;stroke-opacity:1" sodipodi:type="arc"/>
      <path sodipodi:nodetypes="cscss" id="path3294" d="M -1051.8085,1175.1614 C -1034.0339,1182.2729 -1004.6666,1165.9572 -992.26525,1153.0747 C -979.86397,1140.1923 -970.33218,1127.3345 -970.33219,1107.5855 C -982.8292,1033.5148 -970.40624,1120.3272 -1006.7844,1145.5534 C -1035.7112,1165.6125 -1127.6635,1144.812 -1051.8085,1175.1614 z" style="fill:#a28400;fill-opacity:1;stroke:none;stroke-width:3;stroke-miterlimit:4;stroke-dasharray:9, 9;stroke-dashoffset:0;stroke-opacity:1"/>
      <path transform="matrix(1.5072354,-0.8001583,0.4704307,1.509166,-154.47329,-1048.0369)" d="M -885.27643,926.13544 A 11.531432,8.9855318 0 1 1 -908.33929,926.13544 A 11.531432,8.9855318 0 1 1 -885.27643,926.13544 z" sodipodi:ry="8.9855318" sodipodi:rx="11.531432" sodipodi:cy="926.13544" sodipodi:cx="-896.80786" id="path3296" style="fill:url(#radialGradient3313);fill-opacity:1;stroke:none;stroke-width:3;stroke-miterlimit:4;stroke-dasharray:9, 9;stroke-dashoffset:0;stroke-opacity:1" sodipodi:type="arc"/>
      <text id="text3362" y="1140.5502" x="-1055.3033" style="font-size:40px;font-style:normal;font-weight:normal;fill:#000000;fill-opacity:1;stroke:none;stroke-width:1px;stroke-linecap:butt;stroke-linejoin:miter;stroke-opacity:1;font-family:Bitstream Vera Sans" xml:space="preserve"><tspan style="font-style:italic;font-variant:normal;font-weight:bold;font-stretch:normal;font-family:Arial;-inkscape-font-specification:Arial Bold Italic" y="1140.5502" x="-1055.3033" id="tspan3364" sodipodi:role="line">Б</tspan></text>
    </g>
  </g>
</svg>